# xmcd
# Copyright (C) 1995-1998 Ti Kan
#
# Track frame offsets:
#       150
#       18278
#       37638
#       40928
#       58850
#       75379
#       89326
#       106643
#       125997
#       140648
#
# Disc length: 2112 seconds
#
# Revision: 0
# Processed by: cddbd v1.5.2PL0 Copyright (c) Steve Scherf et al.
# Submitted via: CD-Transfer v1.0
#
DISCID=78083e0a
DTITLE=Bad Jokers - Alte Rituale
DYEAR=12
DGENRE=
TTITLE0=Das Waren Noch Zeiten
TTITLE1=Unzertrennlich
TTITLE2=Rituale
TTITLE3=Alte Rituale
TTITLE4=Dann Wünsche Ich Mir
TTITLE5=Siehst Du Die Wunde
TTITLE6=Siebenmal
TTITLE7=Glaube Es Nicht
TTITLE8=Ein Tag Im September
TTITLE9=Dafür Danke Ich Dir
EXTD=
EXTT0=
EXTT1=
EXTT2=
EXTT3=
EXTT4=
EXTT5=
EXTT6=
EXTT7=
EXTT8=
EXTT9=
PLAYORDER=
